<svg width="12" height="12" viewBox="0 0 12 12" fill="none" xmlns="http://www.w3.org/2000/svg">
<path fill-rule="evenodd" clip-rule="evenodd" d="M0.645778 6.94383L7.10615 0.611079C7.93734 -0.203693 9.2855 -0.203693 10.1167 0.611079L10.9796 1.45693C11.8108 2.2717 11.8108 3.59323 10.9796 4.408L4.49374 10.7657C4.12287 11.1293 3.62005 11.3333 3.09521 11.3333H0.439027C0.192276 11.3333 -0.00601015 11.134 0.000139266 10.8922L0.0669543 8.26497C0.0802383 7.76842 0.287513 7.29502 0.645778 6.94383ZM10.3587 2.06554L9.49582 1.21969C9.00753 0.741042 8.21532 0.741042 7.72702 1.21969L7.22549 1.71132L9.85746 4.29075L10.3587 3.79939C10.847 3.32075 10.847 2.54419 10.3587 2.06554ZM1.26665 7.55244L6.60461 2.31993L9.23659 4.89936L3.87286 10.1571L3.80152 10.2212C3.60447 10.383 3.35481 10.4726 3.09521 10.4726L0.888967 10.4723L0.944716 8.28698C0.952092 8.01125 1.06751 7.74765 1.26665 7.55244ZM12 10.903C12 10.6653 11.8034 10.4726 11.561 10.4726H6.98066L6.92109 10.4766C6.7068 10.5051 6.54164 10.6851 6.54164 10.903C6.54164 11.1407 6.73819 11.3333 6.98066 11.3333H11.561L11.6205 11.3294C11.8348 11.3009 12 11.1209 12 10.903Z" fill="white"/>
</svg>
