<svg width="35" height="39" viewBox="0 0 35 39" fill="none" xmlns="http://www.w3.org/2000/svg">
<rect x="0.516436" y="0.516451" width="33.7525" height="37.9671" rx="16.7894" fill="#2B2638"/>
<circle cx="17.3927" cy="5.62543" r="3.09863" fill="#E9001C"/>
<path fill-rule="evenodd" clip-rule="evenodd" d="M15.8772 32.7857C16.3453 33.332 16.9463 33.6321 17.5699 33.6321H17.5708C18.1971 33.6321 18.8009 33.332 19.2699 32.7847C19.5212 32.494 19.9495 32.4704 20.227 32.7326C20.5054 32.9949 20.528 33.4446 20.2776 33.7353C19.5474 34.5846 18.5867 35.0523 17.5708 35.0523H17.569C16.5559 35.0514 15.597 34.5836 14.8695 33.7344C14.6191 33.4437 14.6417 32.994 14.9201 32.7326C15.1984 32.4694 15.6268 32.4931 15.8772 32.7857ZM17.6149 14.696C21.6322 14.696 24.3308 17.9739 24.3308 21.0349C24.3308 22.6094 24.7131 23.2769 25.1189 23.9851C25.5202 24.6839 25.9748 25.4773 25.9748 26.977C25.6594 30.8087 21.8409 31.1212 17.6149 31.1212C13.3889 31.1212 9.56959 30.8087 9.25778 27.0376C9.25508 25.4773 9.70967 24.6839 10.1109 23.9851L10.2526 23.7353C10.6014 23.1073 10.899 22.4242 10.899 21.0349C10.899 17.9739 13.5977 14.696 17.6149 14.696ZM17.6149 16.1162C14.4563 16.1162 12.2547 18.7086 12.2547 21.0349C12.2547 23.0033 11.7332 23.9132 11.2723 24.716C10.9026 25.3608 10.6107 25.8702 10.6107 26.977C10.7617 28.7627 11.8869 29.701 17.6149 29.701C23.3114 29.701 24.4718 28.721 24.6218 26.9155C24.6191 25.8702 24.3272 25.3608 23.9576 24.716C23.4966 23.9132 22.9752 23.0033 22.9752 21.0349C22.9752 18.7086 20.7736 16.1162 17.6149 16.1162Z" fill="#E2D8FD"/>
<rect x="0.516436" y="0.516451" width="33.7525" height="37.9671" rx="16.7894" stroke="#D9CBFF" stroke-opacity="0.4" stroke-width="1.02756"/>
</svg>
