<svg width="16" height="16" viewBox="0 0 16 16" fill="none" xmlns="http://www.w3.org/2000/svg">
<path fill-rule="evenodd" clip-rule="evenodd" d="M4.41598 0H11.1736C13.827 0 15.5904 1.9436 15.5904 4.7328V11.2672C15.5904 14.0565 13.8268 16 11.1729 16H4.41598C1.76278 16 0 14.0565 0 11.2672V4.7328C0 1.94608 1.7675 0 4.41598 0ZM11.1735 1.19989H4.41585C2.43224 1.19989 1.16915 2.59059 1.16915 4.73269V11.2671C1.16915 13.4121 2.42789 14.7999 4.41585 14.7999H11.1727C13.1616 14.7999 14.421 13.412 14.421 11.2671V4.73269C14.421 2.58787 13.1617 1.19989 11.1735 1.19989Z" fill="#65656B"/>
</svg>
