<svg width="11" height="14" viewBox="0 0 11 14" fill="none" xmlns="http://www.w3.org/2000/svg">
<path fill-rule="evenodd" clip-rule="evenodd" d="M5.50291 0C3.48578 0 1.85058 1.64218 1.85058 3.6679C1.85058 5.69363 3.48578 7.33581 5.50291 7.33581C7.52004 7.33581 9.15524 5.69363 9.15524 3.6679C9.15524 1.64218 7.52004 0 5.50291 0ZM5.50291 0.995265C6.9727 0.995265 8.1642 2.19185 8.1642 3.6679C8.1642 5.14396 6.9727 6.34054 5.50291 6.34054C4.03312 6.34054 2.84162 5.14396 2.84162 3.6679C2.84162 2.19185 4.03312 0.995265 5.50291 0.995265ZM4.00813 8.81429C3.47345 8.85141 2.933 8.92773 2.39991 9.04198C1.37099 9.25393 0.547832 9.67738 0.197475 10.3811C0.0653308 10.6563 -0.00110709 10.951 1.39527e-05 11.2493C-0.000382482 11.5455 0.0655176 11.8405 0.192923 12.1104C0.529332 12.806 1.25661 13.1997 2.23865 13.4179L2.41457 13.4546C2.93319 13.5716 3.4738 13.6504 4.01804 13.6874C4.06439 13.7009 4.17486 13.7136 4.29544 13.7197L4.39462 13.7235C4.44561 13.7246 4.50349 13.7249 4.58972 13.7249C5.37198 13.768 6.18293 13.7554 6.99011 13.6867C7.42027 13.6573 7.85332 13.601 8.28275 13.5186L8.60404 13.4519C9.6645 13.2427 10.4586 12.8449 10.8064 12.1112C11.0644 11.5665 11.0644 10.9344 10.8066 10.3899C10.4596 9.6581 9.67559 9.26357 8.596 9.04117C8.17243 8.95074 7.74202 8.88384 7.30853 8.84111L6.99162 8.81429C5.99903 8.72673 5.00071 8.72673 4.00813 8.81429ZM6.90489 9.80574L6.91361 9.80643C7.41111 9.84145 7.90557 9.91128 8.39339 10.0154C9.1953 10.1806 9.73951 10.4545 9.91167 10.8176C10.0413 11.0914 10.0413 11.4095 9.91156 11.6835C9.75069 12.0228 9.26192 12.2849 8.5555 12.4451L8.40084 12.4779C7.90342 12.5889 7.4106 12.6604 6.91451 12.6944C6.14478 12.7599 5.3796 12.7717 4.61636 12.7304L4.34576 12.7258C4.27064 12.7219 4.20733 12.7147 4.14866 12.7029C3.68409 12.6678 3.26605 12.6124 2.86016 12.5319L2.6178 12.4806C1.8134 12.3229 1.2644 12.0479 1.0864 11.6798C1.02411 11.5478 0.990844 11.3989 0.991042 11.2481C0.990485 11.0981 1.02332 10.9525 1.08705 10.8197C1.26012 10.4722 1.84193 10.1729 2.60289 10.0161C3.09422 9.91085 3.58845 9.84106 4.08573 9.80646C5.02972 9.72327 5.97001 9.72327 6.90489 9.80574Z" fill="white"/>
</svg>
