<svg width="14" height="12" viewBox="0 0 14 12" fill="none" xmlns="http://www.w3.org/2000/svg">
<path fill-rule="evenodd" clip-rule="evenodd" d="M9.68353 3.16688e-05L3.63746 0C1.52443 0 0 1.70767 0 3.90598V8.09402C0 10.2923 1.52443 12 3.63746 12H9.67789C10.6928 11.9886 11.6535 11.5614 12.3417 10.8177C13.03 10.074 13.3857 9.07886 13.3262 8.06396L13.3271 3.90598C13.3857 2.92114 13.03 1.92597 12.3417 1.1823C11.6535 0.438624 10.6928 0.0113672 9.68353 3.16688e-05ZM3.63746 1.01895L9.67225 1.01892C10.4049 1.02715 11.1022 1.33728 11.6017 1.87708C12.1013 2.41689 12.3596 3.13925 12.3163 3.87592L12.3154 8.09402C12.3596 8.86075 12.1013 9.58311 11.6017 10.1229C11.1022 10.6627 10.4049 10.9729 9.67225 10.9811L3.63746 10.981C2.10853 10.981 1.01163 9.7523 1.01163 8.09402V3.90598C1.01163 2.2477 2.10853 1.01895 3.63746 1.01895ZM10.6827 3.75891C10.5081 3.53924 10.1898 3.5037 9.97172 3.67953L7.23886 5.88283L7.16053 5.93788C6.83831 6.1397 6.41519 6.12106 6.10654 5.87875L3.35371 3.67821L3.29175 3.63574C3.07824 3.51152 2.80094 3.56021 2.64307 3.76057C2.46942 3.98097 2.50602 4.30144 2.72484 4.47636L5.48116 6.67965L5.58869 6.75836C6.28206 7.23059 7.2009 7.20449 7.86589 6.68241L10.6039 4.47503L10.6588 4.42367C10.8267 4.24174 10.8414 3.95861 10.6827 3.75891Z" fill="white"/>
</svg>
