<svg width="14" height="14" viewBox="0 0 14 14" fill="none" xmlns="http://www.w3.org/2000/svg">
<path fill-rule="evenodd" clip-rule="evenodd" d="M3.12931 0.00120822L3.14794 0.00241109C3.51467 0.0328064 3.83317 0.215051 4.12393 0.499134C4.67647 1.03879 5.86296 2.61357 5.95254 3.04213C6.05168 3.52024 5.94568 3.83076 5.62968 4.38007L5.55309 4.51544C5.40809 4.78029 5.38592 4.88964 5.43081 5.01486C6.12076 6.70342 7.29812 7.88061 8.96739 8.56238C9.12548 8.61964 9.24484 8.58682 9.57891 8.39517L9.75324 8.29655C10.2229 8.03895 10.5206 7.95753 10.9596 8.04896C11.3866 8.13844 12.9623 9.32569 13.5011 9.87753C13.7848 10.168 13.9675 10.4871 13.9993 10.878C14.0328 11.828 12.8736 13.1657 12.1664 13.5679C11.3622 14.1432 10.3416 14.1337 9.19727 13.6011C6.20486 12.3559 1.6275 7.80775 0.407668 4.81902L0.334647 4.65184C-0.12854 3.54479 -0.118503 2.58836 0.412287 1.86731C0.896614 1.06523 2.20244 -0.041658 3.12931 0.00120822ZM3.07273 1.02478L3.01102 1.02795C2.53531 1.09114 1.58132 1.91245 1.26362 2.43484L1.20873 2.51651C0.935048 2.96243 0.966767 3.57481 1.34781 4.41329L1.42063 4.58375C2.6495 7.34175 6.90432 11.5375 9.60985 12.6638L9.75887 12.7301C10.5416 13.0619 11.1342 13.0471 11.6139 12.707L11.6494 12.6841C11.7979 12.581 12.1402 12.27 12.4039 11.9657C12.7742 11.5383 12.984 11.1468 12.9772 10.9383C12.9698 10.8492 12.901 10.729 12.7685 10.5932C12.3679 10.183 10.9112 9.08536 10.7502 9.05163C10.5979 9.01992 10.473 9.06253 10.1312 9.2591L9.95934 9.35567C9.4559 9.62717 9.10099 9.70013 8.59957 9.51812C6.65637 8.72499 5.27683 7.34564 4.4753 5.38287C4.28544 4.85807 4.38764 4.48677 4.7178 3.91134L4.79646 3.77295C4.94644 3.50214 4.97819 3.38724 4.94992 3.25094C4.91609 3.08906 3.81913 1.63311 3.40836 1.23192C3.27233 1.09902 3.15282 1.03063 3.06336 1.02322L3.07273 1.02478Z" fill="white"/>
</svg>
